<svg width="400px" height="96px" viewBox="0 0 400 96" version="1.1" xmlns="http://www.w3.org/2000/svg" xmlns:xlink="http://www.w3.org/1999/xlink">
    <!-- Generator: Sketch 48.2 (47327) - http://www.bohemiancoding.com/sketch -->
    <desc>Created with Sketch.</desc>
    <defs></defs>
    <g id="Page-1" stroke="none" stroke-width="1" fill="none" fill-rule="evenodd">
        <g id="back" transform="translate(7.000000, 6.000000)" fill="#E33F68">
            <circle id="Oval" cx="26" cy="26" r="26"></circle>
        </g>
        <g id="leaf" transform="translate(92.121069, 66.474559) rotate(-63.000000) translate(-92.121069, -66.474559) translate(68.417953, 45.868559)">
            <path d="M0,0 C2.1377777,13.5921364 7.09769882,23.8146874 14.8797633,30.667653 C22.6618279,37.5206185 33.5039839,41.0354003 47.4062316,41.2119985 C43.6026243,27.6601036 37.9918714,17.6180174 30.5739727,11.0857401 C23.156074,4.55346267 12.9647498,0.85821598 0,0 Z" id="Path-2" fill="#498849"></path>
            <path d="M0,0 C9.50961977,0.670685417 17.9414623,3.24684795 25.2955277,7.72848759 C32.6495931,12.2101272 38.3688644,19.4633339 42.4533417,29.4881074 C31.0091775,34.5050185 21.7394149,34.0998143 14.6440541,28.2724949 C7.86369347,22.7038807 2.9823421,13.2797157 0,0 Z" id="Path-3" fill="#5E9B4D"></path>
        </g>
        <g id="front" transform="translate(28.000000, 14.000000)">
            <circle id="Oval" fill="#F45980" cx="35" cy="35" r="35"></circle>
            <circle id="Oval-Copy" fill="#F3D7DB" cx="34.6464646" cy="34.6464646" r="31.1111111"></circle>
            <circle id="Oval-Copy" fill="#FFFBC6" cx="35" cy="35" r="27.2222222"></circle>
            <g id="dots" transform="translate(15.555556, 12.727273)">
                <g id="dot" transform="translate(19.090909, 41.010101) rotate(-43.000000) translate(-19.090909, -41.010101) translate(16.262626, 38.181818)">
                    <path d="M5.61856829,0.0316966076 C3.54803197,-0.166199723 1.91564005,0.585038914 0.900606229,1.6580525 C0.233554471,2.36320693 -0.445863202,3.99837313 0.381234815,4.93331934 C1.17001574,5.82495216 2.88423826,6.06055556 4.14605536,4.6622708 C5.40787247,3.26398604 5.78787158,1.74381345 5.61856829,0.0316966076 Z" id="Path-4" stroke="#FBD253" fill="#FFD969"></path>
                    <path d="M4.94949495,0.713875216 C2.8795057,0.60545962 1.78026734,1.82819511 1.7634699,1.84602941 C1.17614014,2.46961374 1.43720878,3.6276031 1.7634699,3.95728049 C2.08973103,4.28695789 3.29885759,4.41395312 3.79729527,3.87746245 C4.57023277,3.0455154 4.70447154,2.42945972 4.94949495,0.713875216 Z" id="Path-5" stroke="#7E4823" fill="#97582D"></path>
                </g>
                <g id="dot" transform="translate(3.535354, 14.848485) rotate(79.000000) translate(-3.535354, -14.848485) translate(0.707071, 12.020202)">
                    <path d="M5.61856829,0.0316966076 C3.54803197,-0.166199723 1.91564005,0.585038914 0.900606229,1.6580525 C0.233554471,2.36320693 -0.445863202,3.99837313 0.381234815,4.93331934 C1.17001574,5.82495216 2.88423826,6.06055556 4.14605536,4.6622708 C5.40787247,3.26398604 5.78787158,1.74381345 5.61856829,0.0316966076 Z" id="Path-4" stroke="#FBD253" fill="#FFD969"></path>
                    <path d="M4.94949495,0.713875216 C2.8795057,0.60545962 1.78026734,1.82819511 1.7634699,1.84602941 C1.17614014,2.46961374 1.43720878,3.6276031 1.7634699,3.95728049 C2.08973103,4.28695789 3.29885759,4.41395312 3.79729527,3.87746245 C4.57023277,3.0455154 4.70447154,2.42945972 4.94949495,0.713875216 Z" id="Path-5" stroke="#7E4823" fill="#97582D"></path>
                </g>
                <g id="dot" transform="translate(3.535354, 32.525253) rotate(14.000000) translate(-3.535354, -32.525253) translate(0.707071, 29.696970)">
                    <path d="M5.61856829,0.0316966076 C3.54803197,-0.166199723 1.91564005,0.585038914 0.900606229,1.6580525 C0.233554471,2.36320693 -0.445863202,3.99837313 0.381234815,4.93331934 C1.17001574,5.82495216 2.88423826,6.06055556 4.14605536,4.6622708 C5.40787247,3.26398604 5.78787158,1.74381345 5.61856829,0.0316966076 Z" id="Path-4" stroke="#FBD253" fill="#FFD969"></path>
                    <path d="M4.94949495,0.713875216 C2.8795057,0.60545962 1.78026734,1.82819511 1.7634699,1.84602941 C1.17614014,2.46961374 1.43720878,3.6276031 1.7634699,3.95728049 C2.08973103,4.28695789 3.29885759,4.41395312 3.79729527,3.87746245 C4.57023277,3.0455154 4.70447154,2.42945972 4.94949495,0.713875216 Z" id="Path-5" stroke="#7E4823" fill="#97582D"></path>
                </g>
                <g id="dot" transform="translate(19.090909, 4.242424) rotate(131.000000) translate(-19.090909, -4.242424) translate(16.262626, 1.414141)">
                    <path d="M5.61856829,0.0316966076 C3.54803197,-0.166199723 1.91564005,0.585038914 0.900606229,1.6580525 C0.233554471,2.36320693 -0.445863202,3.99837313 0.381234815,4.93331934 C1.17001574,5.82495216 2.88423826,6.06055556 4.14605536,4.6622708 C5.40787247,3.26398604 5.78787158,1.74381345 5.61856829,0.0316966076 Z" id="Path-4" stroke="#FBD253" fill="#FFD969"></path>
                    <path d="M4.94949495,0.713875216 C2.8795057,0.60545962 1.78026734,1.82819511 1.7634699,1.84602941 C1.17614014,2.46961374 1.43720878,3.6276031 1.7634699,3.95728049 C2.08973103,4.28695789 3.29885759,4.41395312 3.79729527,3.87746245 C4.57023277,3.0455154 4.70447154,2.42945972 4.94949495,0.713875216 Z" id="Path-5" stroke="#7E4823" fill="#97582D"></path>
                </g>
                <g id="dot" transform="translate(34.646465, 14.848485) rotate(192.000000) translate(-34.646465, -14.848485) translate(31.818182, 12.020202)">
                    <path d="M5.61856829,0.0316966076 C3.54803197,-0.166199723 1.91564005,0.585038914 0.900606229,1.6580525 C0.233554471,2.36320693 -0.445863202,3.99837313 0.381234815,4.93331934 C1.17001574,5.82495216 2.88423826,6.06055556 4.14605536,4.6622708 C5.40787247,3.26398604 5.78787158,1.74381345 5.61856829,0.0316966076 Z" id="Path-4" stroke="#FBD253" fill="#FFD969"></path>
                    <path d="M4.94949495,0.713875216 C2.8795057,0.60545962 1.78026734,1.82819511 1.7634699,1.84602941 C1.17614014,2.46961374 1.43720878,3.6276031 1.7634699,3.95728049 C2.08973103,4.28695789 3.29885759,4.41395312 3.79729527,3.87746245 C4.57023277,3.0455154 4.70447154,2.42945972 4.94949495,0.713875216 Z" id="Path-5" stroke="#7E4823" fill="#97582D"></path>
                </g>
                <g id="dot" transform="translate(35.353535, 31.818182) rotate(-111.000000) translate(-35.353535, -31.818182) translate(32.525253, 28.989899)">
                    <path d="M5.61856829,0.0316966076 C3.54803197,-0.166199723 1.91564005,0.585038914 0.900606229,1.6580525 C0.233554471,2.36320693 -0.445863202,3.99837313 0.381234815,4.93331934 C1.17001574,5.82495216 2.88423826,6.06055556 4.14605536,4.6622708 C5.40787247,3.26398604 5.78787158,1.74381345 5.61856829,0.0316966076 Z" id="Path-4" stroke="#FBD253" fill="#FFD969"></path>
                    <path d="M4.94949495,0.713875216 C2.8795057,0.60545962 1.78026734,1.82819511 1.7634699,1.84602941 C1.17614014,2.46961374 1.43720878,3.6276031 1.7634699,3.95728049 C2.08973103,4.28695789 3.29885759,4.41395312 3.79729527,3.87746245 C4.57023277,3.0455154 4.70447154,2.42945972 4.94949495,0.713875216 Z" id="Path-5" stroke="#7E4823" fill="#97582D"></path>
                </g>
            </g>
        </g>
        <g id="leaf" transform="translate(30.067008, 76.647362) scale(-1, 1) rotate(311.000000) translate(-30.067008, -76.647362) translate(14.500783, 63.271208)">
            <path d="M0,0 C1.37946611,8.66953776 4.58000613,15.1898366 9.60162005,19.5608966 C14.623234,23.9319566 21.6194651,26.1738068 30.5903134,26.2864472 C28.1359201,17.6425769 24.515411,11.2373848 19.7287862,7.07087091 C14.9421613,2.904357 8.36589927,0.547400027 0,0 Z" id="outer" fill="#498849"></path>
            <path d="M0,0 C6.16705337,0.427786506 11.6351609,2.07095265 16.4043225,4.92949842 C21.1734841,7.78804419 24.8824706,12.4143919 27.531282,18.8085414 C20.1096634,22.0085019 14.0981591,21.7500486 9.4967691,18.0331814 C5.09965892,14.4813254 1.93406922,8.47026497 0,0 Z" id="inner" fill="#5E9B4D"></path>
        </g>
        <path d="M133,24.908046 L147.73659,24.908046 C152.024606,24.908046 154.168582,27.052022 154.168582,31.3400383 L154.168582,48.76341 C154.168582,53.0514263 152.024606,55.1954023 147.73659,55.1954023 L138.536398,55.1954023 L138.536398,75.5498084 L133,75.5498084 L133,24.908046 Z M148.632184,47.8678161 L148.632184,32.2356322 C148.632184,31.1500584 148.48292,30.4580155 148.184387,30.1594828 C147.885854,29.86095 147.193811,29.7116858 146.108238,29.7116858 L138.536398,29.7116858 L138.536398,50.3917625 L146.108238,50.3917625 C147.193811,50.3917625 147.885854,50.2424983 148.184387,49.9439655 C148.48292,49.6454327 148.632184,48.9533898 148.632184,47.8678161 Z M174.034483,36.0622605 L179.652299,36.0622605 L179.652299,75.5498084 L174.034483,75.5498084 L174.034483,72.8630268 C173.437417,74.6542235 171.944776,75.5498084 169.556513,75.5498084 L166.299808,75.5498084 C162.011792,75.5498084 159.867816,73.4058324 159.867816,69.1178161 L159.867816,42.4942529 C159.867816,38.2062365 162.011792,36.0622605 166.299808,36.0622605 L169.556513,36.0622605 C171.944776,36.0622605 173.437417,36.9578455 174.034483,38.7490421 L174.034483,36.0622605 Z M168.009579,70.7461686 L171.266284,70.7461686 C172.2433,70.7461686 172.948912,70.5290571 173.383142,70.0948276 C173.817371,69.6605981 174.034483,68.9007079 174.034483,67.8151341 L174.034483,43.7969349 C174.034483,42.7113611 173.817371,41.9514709 173.383142,41.5172414 C172.948912,41.0830119 172.2433,40.8659004 171.266284,40.8659004 L168.009579,40.8659004 C166.924005,40.8659004 166.231962,41.028734 165.933429,41.3544061 C165.634896,41.6800783 165.485632,42.3585517 165.485632,43.3898467 L165.485632,68.2222222 C165.485632,69.307796 165.634896,69.9998389 165.933429,70.2983716 C166.231962,70.5969044 166.924005,70.7461686 168.009579,70.7461686 Z M199.111111,68.3036398 L199.111111,60.8132184 C199.111111,59.7819233 198.948277,59.1034499 198.622605,58.7777778 C198.296933,58.4521057 197.61846,58.289272 196.587165,58.289272 L192.597701,58.289272 C188.309685,58.289272 186.165709,56.145296 186.165709,51.8572797 L186.165709,42.4942529 C186.165709,38.2062365 188.309685,36.0622605 192.597701,36.0622605 L198.1341,36.0622605 C202.422116,36.0622605 204.566092,38.2062365 204.566092,42.4942529 L204.566092,46.4837165 L199.029693,46.4837165 L199.029693,43.3084291 C199.029693,42.2228554 198.880429,41.5308125 198.581897,41.2322797 C198.283364,40.9337469 197.591321,40.7844828 196.505747,40.7844828 L194.226054,40.7844828 C193.14048,40.7844828 192.448437,40.9337469 192.149904,41.2322797 C191.851371,41.5308125 191.702107,42.2228554 191.702107,43.3084291 L191.702107,51.0431034 C191.702107,52.0743985 191.851371,52.7528719 192.149904,53.0785441 C192.448437,53.4042162 193.14048,53.5670498 194.226054,53.5670498 L198.215517,53.5670498 C202.503534,53.5670498 204.64751,55.7110258 204.64751,59.9990421 L204.64751,69.1178161 C204.64751,73.4058324 202.503534,75.5498084 198.215517,75.5498084 L192.760536,75.5498084 C188.47252,75.5498084 186.328544,73.4058324 186.328544,69.1178161 L186.328544,65.1283525 L191.864943,65.1283525 L191.864943,68.3036398 C191.864943,69.3349349 192.014207,70.0134083 192.312739,70.3390805 C192.611272,70.6647526 193.303315,70.8275862 194.388889,70.8275862 L196.587165,70.8275862 C197.61846,70.8275862 198.296933,70.6647526 198.622605,70.3390805 C198.948277,70.0134083 199.111111,69.3349349 199.111111,68.3036398 Z M223.292146,68.3036398 L223.292146,60.8132184 C223.292146,59.7819233 223.129312,59.1034499 222.80364,58.7777778 C222.477968,58.4521057 221.799494,58.289272 220.768199,58.289272 L216.778736,58.289272 C212.490719,58.289272 210.346743,56.145296 210.346743,51.8572797 L210.346743,42.4942529 C210.346743,38.2062365 212.490719,36.0622605 216.778736,36.0622605 L222.315134,36.0622605 C226.60315,36.0622605 228.747126,38.2062365 228.747126,42.4942529 L228.747126,46.4837165 L223.210728,46.4837165 L223.210728,43.3084291 C223.210728,42.2228554 223.061464,41.5308125 222.762931,41.2322797 C222.464398,40.9337469 221.772355,40.7844828 220.686782,40.7844828 L218.407088,40.7844828 C217.321514,40.7844828 216.629471,40.9337469 216.330939,41.2322797 C216.032406,41.5308125 215.883142,42.2228554 215.883142,43.3084291 L215.883142,51.0431034 C215.883142,52.0743985 216.032406,52.7528719 216.330939,53.0785441 C216.629471,53.4042162 217.321514,53.5670498 218.407088,53.5670498 L222.396552,53.5670498 C226.684568,53.5670498 228.828544,55.7110258 228.828544,59.9990421 L228.828544,69.1178161 C228.828544,73.4058324 226.684568,75.5498084 222.396552,75.5498084 L216.941571,75.5498084 C212.653555,75.5498084 210.509579,73.4058324 210.509579,69.1178161 L210.509579,65.1283525 L216.045977,65.1283525 L216.045977,68.3036398 C216.045977,69.3349349 216.195241,70.0134083 216.493774,70.3390805 C216.792307,70.6647526 217.48435,70.8275862 218.569923,70.8275862 L220.768199,70.8275862 C221.799494,70.8275862 222.477968,70.6647526 222.80364,70.3390805 C223.129312,70.0134083 223.292146,69.3349349 223.292146,68.3036398 Z M235.179119,27.5948276 L235.179119,21 L241.122605,21 L241.122605,27.5948276 L235.179119,27.5948276 Z M240.95977,75.5498084 L235.341954,75.5498084 L235.341954,36.0622605 L240.95977,36.0622605 L240.95977,75.5498084 Z M254.312261,36.0622605 L262.616858,36.0622605 C266.904875,36.0622605 269.048851,38.2062365 269.048851,42.4942529 L269.048851,69.1178161 C269.048851,73.4058324 266.904875,75.5498084 262.616858,75.5498084 L254.312261,75.5498084 C250.024244,75.5498084 247.880268,73.4058324 247.880268,69.1178161 L247.880268,42.4942529 C247.880268,38.2062365 250.024244,36.0622605 254.312261,36.0622605 Z M263.512452,68.2222222 L263.512452,43.3898467 C263.512452,42.3585517 263.349618,41.6800783 263.023946,41.3544061 C262.698274,41.028734 262.019801,40.8659004 260.988506,40.8659004 L255.940613,40.8659004 C254.909318,40.8659004 254.230845,41.028734 253.905172,41.3544061 C253.5795,41.6800783 253.416667,42.3585517 253.416667,43.3898467 L253.416667,68.2222222 C253.416667,69.307796 253.5795,69.9998389 253.905172,70.2983716 C254.230845,70.5969044 254.909318,70.7461686 255.940613,70.7461686 L260.988506,70.7461686 C262.019801,70.7461686 262.698274,70.5969044 263.023946,70.2983716 C263.349618,69.9998389 263.512452,69.307796 263.512452,68.2222222 Z M286.065134,36.0622605 L289.321839,36.0622605 C293.609855,36.0622605 295.753831,38.2062365 295.753831,42.4942529 L295.753831,75.5498084 L290.136015,75.5498084 L290.136015,43.3898467 C290.136015,42.3585517 289.986751,41.6800783 289.688218,41.3544061 C289.389686,41.028734 288.697643,40.8659004 287.612069,40.8659004 L284.355364,40.8659004 C283.378348,40.8659004 282.672735,41.0830119 282.238506,41.5172414 C281.804276,41.9514709 281.587165,42.7113611 281.587165,43.7969349 L281.587165,75.5498084 L275.969349,75.5498084 L275.969349,36.0622605 L281.587165,36.0622605 L281.587165,38.7490421 C282.18423,36.9578455 283.676872,36.0622605 286.065134,36.0622605 Z M315.049808,26.2921456 L311.874521,26.2921456 C310.843226,26.2921456 310.164753,26.4414097 309.83908,26.7399425 C309.513408,27.0384753 309.350575,27.7305182 309.350575,28.816092 L309.350575,36.0622605 L315.049808,36.0622605 L315.049808,40.8659004 L309.350575,40.8659004 L309.350575,75.5498084 L303.732759,75.5498084 L303.732759,40.8659004 L299.824713,40.8659004 L299.824713,36.0622605 L303.732759,36.0622605 L303.732759,27.51341 C303.732759,23.2253936 305.876735,21.0814176 310.164751,21.0814176 L315.049808,21.0814176 L315.049808,26.2921456 Z M330.600575,36.0622605 L332.310345,36.0622605 L332.310345,40.947318 L329.867816,40.947318 C326.448259,40.947318 324.738506,42.9827383 324.738506,47.0536398 L324.738506,75.5498084 L319.12069,75.5498084 L319.12069,36.0622605 L324.738506,36.0622605 L324.738506,40.6216475 C325.172735,39.3732377 325.891917,38.3012497 326.896073,37.4056513 C327.900229,36.510053 329.13505,36.0622605 330.600575,36.0622605 Z M350.547893,36.0622605 L356.165709,36.0622605 L356.165709,75.5498084 L350.547893,75.5498084 L350.547893,72.8630268 C349.950827,74.6542235 348.458186,75.5498084 346.069923,75.5498084 L342.813218,75.5498084 C338.525202,75.5498084 336.381226,73.4058324 336.381226,69.1178161 L336.381226,36.0622605 L341.999042,36.0622605 L341.999042,68.2222222 C341.999042,69.307796 342.161876,69.9998389 342.487548,70.2983716 C342.81322,70.5969044 343.491693,70.7461686 344.522989,70.7461686 L347.779693,70.7461686 C348.75671,70.7461686 349.462322,70.5290571 349.896552,70.0948276 C350.330781,69.6605981 350.547893,68.9007079 350.547893,67.8151341 L350.547893,36.0622605 Z M363.33046,27.5948276 L363.33046,21 L369.273946,21 L369.273946,27.5948276 L363.33046,27.5948276 Z M369.111111,75.5498084 L363.493295,75.5498084 L363.493295,36.0622605 L369.111111,36.0622605 L369.111111,75.5498084 Z M388,40.8659004 L382.382184,40.8659004 L382.382184,67.8151341 C382.382184,68.8464292 382.545018,69.5249026 382.87069,69.8505747 C383.196362,70.1762468 383.874835,70.3390805 384.90613,70.3390805 L388,70.3390805 L388,75.5498084 L383.19636,75.5498084 C378.908344,75.5498084 376.764368,73.4058324 376.764368,69.1178161 L376.764368,40.8659004 L373.181992,40.8659004 L373.181992,36.0622605 L376.764368,36.0622605 L376.764368,29.6302682 L382.382184,29.6302682 L382.382184,36.0622605 L388,36.0622605 L388,40.8659004 Z" id="Passionfruit" fill="#494949"></path>
    </g>
</svg>