
<svg width="400px" height="96px" viewBox="0 0 400 96" version="1.1" xmlns="http://www.w3.org/2000/svg" xmlns:xlink="http://www.w3.org/1999/xlink">
    <!-- Generator: Sketch 48.2 (47327) - http://www.bohemiancoding.com/sketch -->
    <desc>Created with Sketch.</desc>
    <defs></defs>
    <g id="Page-1" stroke="none" stroke-width="1" fill="none" fill-rule="evenodd">
        <g id="back" transform="translate(14.000000, 11.000000)" fill="#E33F68">
            <circle id="Oval" cx="26" cy="26" r="26"></circle>
        </g>
        <g id="front" transform="translate(35.000000, 19.000000)">
            <circle id="Oval" fill="#F45980" cx="35" cy="35" r="35"></circle>
            <circle id="Oval-Copy" fill="#F3D7DB" cx="34.6464646" cy="34.6464646" r="31.1111111"></circle>
            <circle id="Oval-Copy" fill="#FFFBC6" cx="35" cy="35" r="27.2222222"></circle>
            <g id="dots" transform="translate(15.555556, 12.727273)">
                <g id="Group" transform="translate(19.090909, 41.010101) rotate(-43.000000) translate(-19.090909, -41.010101) translate(16.262626, 38.181818)">
                    <path d="M5.61856829,0.0316966076 C3.54803197,-0.166199723 1.91564005,0.585038914 0.900606229,1.6580525 C0.233554471,2.36320693 -0.445863202,3.99837313 0.381234815,4.93331934 C1.17001574,5.82495216 2.88423826,6.06055556 4.14605536,4.6622708 C5.40787247,3.26398604 5.78787158,1.74381345 5.61856829,0.0316966076 Z" id="Path-4" stroke="#FBD253" fill="#FFD969"></path>
                    <path d="M4.94949495,0.713875216 C2.8795057,0.60545962 1.78026734,1.82819511 1.7634699,1.84602941 C1.17614014,2.46961374 1.43720878,3.6276031 1.7634699,3.95728049 C2.08973103,4.28695789 3.29885759,4.41395312 3.79729527,3.87746245 C4.57023277,3.0455154 4.70447154,2.42945972 4.94949495,0.713875216 Z" id="Path-5" stroke="#7E4823" fill="#97582D"></path>
                </g>
                <g id="dot" transform="translate(3.535354, 14.848485) rotate(79.000000) translate(-3.535354, -14.848485) translate(0.707071, 12.020202)">
                    <path d="M5.61856829,0.0316966076 C3.54803197,-0.166199723 1.91564005,0.585038914 0.900606229,1.6580525 C0.233554471,2.36320693 -0.445863202,3.99837313 0.381234815,4.93331934 C1.17001574,5.82495216 2.88423826,6.06055556 4.14605536,4.6622708 C5.40787247,3.26398604 5.78787158,1.74381345 5.61856829,0.0316966076 Z" id="Path-4" stroke="#FBD253" fill="#FFD969"></path>
                    <path d="M4.94949495,0.713875216 C2.8795057,0.60545962 1.78026734,1.82819511 1.7634699,1.84602941 C1.17614014,2.46961374 1.43720878,3.6276031 1.7634699,3.95728049 C2.08973103,4.28695789 3.29885759,4.41395312 3.79729527,3.87746245 C4.57023277,3.0455154 4.70447154,2.42945972 4.94949495,0.713875216 Z" id="Path-5" stroke="#7E4823" fill="#97582D"></path>
                </g>
                <g id="dot" transform="translate(3.535354, 32.525253) rotate(14.000000) translate(-3.535354, -32.525253) translate(0.707071, 29.696970)">
                    <path d="M5.61856829,0.0316966076 C3.54803197,-0.166199723 1.91564005,0.585038914 0.900606229,1.6580525 C0.233554471,2.36320693 -0.445863202,3.99837313 0.381234815,4.93331934 C1.17001574,5.82495216 2.88423826,6.06055556 4.14605536,4.6622708 C5.40787247,3.26398604 5.78787158,1.74381345 5.61856829,0.0316966076 Z" id="Path-4" stroke="#FBD253" fill="#FFD969"></path>
                    <path d="M4.94949495,0.713875216 C2.8795057,0.60545962 1.78026734,1.82819511 1.7634699,1.84602941 C1.17614014,2.46961374 1.43720878,3.6276031 1.7634699,3.95728049 C2.08973103,4.28695789 3.29885759,4.41395312 3.79729527,3.87746245 C4.57023277,3.0455154 4.70447154,2.42945972 4.94949495,0.713875216 Z" id="Path-5" stroke="#7E4823" fill="#97582D"></path>
                </g>
                <g id="dot" transform="translate(19.090909, 4.242424) rotate(131.000000) translate(-19.090909, -4.242424) translate(16.262626, 1.414141)">
                    <path d="M5.61856829,0.0316966076 C3.54803197,-0.166199723 1.91564005,0.585038914 0.900606229,1.6580525 C0.233554471,2.36320693 -0.445863202,3.99837313 0.381234815,4.93331934 C1.17001574,5.82495216 2.88423826,6.06055556 4.14605536,4.6622708 C5.40787247,3.26398604 5.78787158,1.74381345 5.61856829,0.0316966076 Z" id="Path-4" stroke="#FBD253" fill="#FFD969"></path>
                    <path d="M4.94949495,0.713875216 C2.8795057,0.60545962 1.78026734,1.82819511 1.7634699,1.84602941 C1.17614014,2.46961374 1.43720878,3.6276031 1.7634699,3.95728049 C2.08973103,4.28695789 3.29885759,4.41395312 3.79729527,3.87746245 C4.57023277,3.0455154 4.70447154,2.42945972 4.94949495,0.713875216 Z" id="Path-5" stroke="#7E4823" fill="#97582D"></path>
                </g>
                <g id="dot" transform="translate(34.646465, 14.848485) rotate(192.000000) translate(-34.646465, -14.848485) translate(31.818182, 12.020202)">
                    <path d="M5.61856829,0.0316966076 C3.54803197,-0.166199723 1.91564005,0.585038914 0.900606229,1.6580525 C0.233554471,2.36320693 -0.445863202,3.99837313 0.381234815,4.93331934 C1.17001574,5.82495216 2.88423826,6.06055556 4.14605536,4.6622708 C5.40787247,3.26398604 5.78787158,1.74381345 5.61856829,0.0316966076 Z" id="Path-4" stroke="#FBD253" fill="#FFD969"></path>
                    <path d="M4.94949495,0.713875216 C2.8795057,0.60545962 1.78026734,1.82819511 1.7634699,1.84602941 C1.17614014,2.46961374 1.43720878,3.6276031 1.7634699,3.95728049 C2.08973103,4.28695789 3.29885759,4.41395312 3.79729527,3.87746245 C4.57023277,3.0455154 4.70447154,2.42945972 4.94949495,0.713875216 Z" id="Path-5" stroke="#7E4823" fill="#97582D"></path>
                </g>
                <g id="dot" transform="translate(35.353535, 31.818182) rotate(-111.000000) translate(-35.353535, -31.818182) translate(32.525253, 28.989899)">
                    <path d="M5.61856829,0.0316966076 C3.54803197,-0.166199723 1.91564005,0.585038914 0.900606229,1.6580525 C0.233554471,2.36320693 -0.445863202,3.99837313 0.381234815,4.93331934 C1.17001574,5.82495216 2.88423826,6.06055556 4.14605536,4.6622708 C5.40787247,3.26398604 5.78787158,1.74381345 5.61856829,0.0316966076 Z" id="Path-4" stroke="#FBD253" fill="#FFD969"></path>
                    <path d="M4.94949495,0.713875216 C2.8795057,0.60545962 1.78026734,1.82819511 1.7634699,1.84602941 C1.17614014,2.46961374 1.43720878,3.6276031 1.7634699,3.95728049 C2.08973103,4.28695789 3.29885759,4.41395312 3.79729527,3.87746245 C4.57023277,3.0455154 4.70447154,2.42945972 4.94949495,0.713875216 Z" id="Path-5" stroke="#7E4823" fill="#97582D"></path>
                </g>
            </g>
        </g>
        <g id="title" transform="translate(126.000000, 12.000000)">
            <path d="M0,14.908046 L14.73659,14.908046 C19.0246064,14.908046 21.1685824,17.052022 21.1685824,21.3400383 L21.1685824,38.76341 C21.1685824,43.0514263 19.0246064,45.1954023 14.73659,45.1954023 L5.53639847,45.1954023 L5.53639847,65.5498084 L0,65.5498084 L0,14.908046 Z M15.6321839,37.8678161 L15.6321839,22.2356322 C15.6321839,21.1500584 15.4829198,20.4580155 15.184387,20.1594828 C14.8858542,19.86095 14.1938113,19.7116858 13.1082375,19.7116858 L5.53639847,19.7116858 L5.53639847,40.3917625 L13.1082375,40.3917625 C14.1938113,40.3917625 14.8858542,40.2424983 15.184387,39.9439655 C15.4829198,39.6454327 15.6321839,38.9533898 15.6321839,37.8678161 Z M41.0344828,26.0622605 L46.6522989,26.0622605 L46.6522989,65.5498084 L41.0344828,65.5498084 L41.0344828,62.8630268 C40.4374172,64.6542235 38.9447757,65.5498084 36.5565134,65.5498084 L33.2998084,65.5498084 C29.0117921,65.5498084 26.8678161,63.4058324 26.8678161,59.1178161 L26.8678161,32.4942529 C26.8678161,28.2062365 29.0117921,26.0622605 33.2998084,26.0622605 L36.5565134,26.0622605 C38.9447757,26.0622605 40.4374172,26.9578455 41.0344828,28.7490421 L41.0344828,26.0622605 Z M35.0095785,60.7461686 L38.2662835,60.7461686 C39.2432999,60.7461686 39.9489123,60.5290571 40.3831418,60.0948276 C40.8173713,59.6605981 41.0344828,58.9007079 41.0344828,57.8151341 L41.0344828,33.7969349 C41.0344828,32.7113611 40.8173713,31.9514709 40.3831418,31.5172414 C39.9489123,31.0830119 39.2432999,30.8659004 38.2662835,30.8659004 L35.0095785,30.8659004 C33.9240048,30.8659004 33.2319619,31.028734 32.9334291,31.3544061 C32.6348963,31.6800783 32.4856322,32.3585517 32.4856322,33.3898467 L32.4856322,58.2222222 C32.4856322,59.307796 32.6348963,59.9998389 32.9334291,60.2983716 C33.2319619,60.5969044 33.9240048,60.7461686 35.0095785,60.7461686 Z M66.1111111,58.3036398 L66.1111111,50.8132184 C66.1111111,49.7819233 65.9482775,49.1034499 65.6226054,48.7777778 C65.2969332,48.4521057 64.6184598,48.289272 63.5871648,48.289272 L59.5977011,48.289272 C55.3096848,48.289272 53.1657088,46.145296 53.1657088,41.8572797 L53.1657088,32.4942529 C53.1657088,28.2062365 55.3096848,26.0622605 59.5977011,26.0622605 L65.1340996,26.0622605 C69.4221159,26.0622605 71.566092,28.2062365 71.566092,32.4942529 L71.566092,36.4837165 L66.0296935,36.4837165 L66.0296935,33.3084291 C66.0296935,32.2228554 65.8804293,31.5308125 65.5818966,31.2322797 C65.2833638,30.9337469 64.5913209,30.7844828 63.5057471,30.7844828 L61.2260536,30.7844828 C60.1404799,30.7844828 59.448437,30.9337469 59.1499042,31.2322797 C58.8513714,31.5308125 58.7021073,32.2228554 58.7021073,33.3084291 L58.7021073,41.0431034 C58.7021073,42.0743985 58.8513714,42.7528719 59.1499042,43.0785441 C59.448437,43.4042162 60.1404799,43.5670498 61.2260536,43.5670498 L65.2155172,43.5670498 C69.5035336,43.5670498 71.6475096,45.7110258 71.6475096,49.9990421 L71.6475096,59.1178161 C71.6475096,63.4058324 69.5035336,65.5498084 65.2155172,65.5498084 L59.7605364,65.5498084 C55.4725201,65.5498084 53.3285441,63.4058324 53.3285441,59.1178161 L53.3285441,55.1283525 L58.8649425,55.1283525 L58.8649425,58.3036398 C58.8649425,59.3349349 59.0142067,60.0134083 59.3127395,60.3390805 C59.6112722,60.6647526 60.3033151,60.8275862 61.3888889,60.8275862 L63.5871648,60.8275862 C64.6184598,60.8275862 65.2969332,60.6647526 65.6226054,60.3390805 C65.9482775,60.0134083 66.1111111,59.3349349 66.1111111,58.3036398 Z M90.2921456,58.3036398 L90.2921456,50.8132184 C90.2921456,49.7819233 90.129312,49.1034499 89.8036398,48.7777778 C89.4779677,48.4521057 88.7994943,48.289272 87.7681992,48.289272 L83.7787356,48.289272 C79.4907193,48.289272 77.3467433,46.145296 77.3467433,41.8572797 L77.3467433,32.4942529 C77.3467433,28.2062365 79.4907193,26.0622605 83.7787356,26.0622605 L89.3151341,26.0622605 C93.6031504,26.0622605 95.7471264,28.2062365 95.7471264,32.4942529 L95.7471264,36.4837165 L90.210728,36.4837165 L90.210728,33.3084291 C90.210728,32.2228554 90.0614638,31.5308125 89.762931,31.2322797 C89.4643983,30.9337469 88.7723554,30.7844828 87.6867816,30.7844828 L85.4070881,30.7844828 C84.3215144,30.7844828 83.6294715,30.9337469 83.3309387,31.2322797 C83.0324059,31.5308125 82.8831418,32.2228554 82.8831418,33.3084291 L82.8831418,41.0431034 C82.8831418,42.0743985 83.0324059,42.7528719 83.3309387,43.0785441 C83.6294715,43.4042162 84.3215144,43.5670498 85.4070881,43.5670498 L89.3965517,43.5670498 C93.6845681,43.5670498 95.8285441,45.7110258 95.8285441,49.9990421 L95.8285441,59.1178161 C95.8285441,63.4058324 93.6845681,65.5498084 89.3965517,65.5498084 L83.9415709,65.5498084 C79.6535545,65.5498084 77.5095785,63.4058324 77.5095785,59.1178161 L77.5095785,55.1283525 L83.045977,55.1283525 L83.045977,58.3036398 C83.045977,59.3349349 83.1952412,60.0134083 83.4937739,60.3390805 C83.7923067,60.6647526 84.4843496,60.8275862 85.5699234,60.8275862 L87.7681992,60.8275862 C88.7994943,60.8275862 89.4779677,60.6647526 89.8036398,60.3390805 C90.129312,60.0134083 90.2921456,59.3349349 90.2921456,58.3036398 Z M102.179119,17.5948276 L102.179119,11 L108.122605,11 L108.122605,17.5948276 L102.179119,17.5948276 Z M107.95977,65.5498084 L102.341954,65.5498084 L102.341954,26.0622605 L107.95977,26.0622605 L107.95977,65.5498084 Z M121.312261,26.0622605 L129.616858,26.0622605 C133.904875,26.0622605 136.048851,28.2062365 136.048851,32.4942529 L136.048851,59.1178161 C136.048851,63.4058324 133.904875,65.5498084 129.616858,65.5498084 L121.312261,65.5498084 C117.024244,65.5498084 114.880268,63.4058324 114.880268,59.1178161 L114.880268,32.4942529 C114.880268,28.2062365 117.024244,26.0622605 121.312261,26.0622605 Z M130.512452,58.2222222 L130.512452,33.3898467 C130.512452,32.3585517 130.349618,31.6800783 130.023946,31.3544061 C129.698274,31.028734 129.019801,30.8659004 127.988506,30.8659004 L122.940613,30.8659004 C121.909318,30.8659004 121.230845,31.028734 120.905172,31.3544061 C120.5795,31.6800783 120.416667,32.3585517 120.416667,33.3898467 L120.416667,58.2222222 C120.416667,59.307796 120.5795,59.9998389 120.905172,60.2983716 C121.230845,60.5969044 121.909318,60.7461686 122.940613,60.7461686 L127.988506,60.7461686 C129.019801,60.7461686 129.698274,60.5969044 130.023946,60.2983716 C130.349618,59.9998389 130.512452,59.307796 130.512452,58.2222222 Z M153.065134,26.0622605 L156.321839,26.0622605 C160.609855,26.0622605 162.753831,28.2062365 162.753831,32.4942529 L162.753831,65.5498084 L157.136015,65.5498084 L157.136015,33.3898467 C157.136015,32.3585517 156.986751,31.6800783 156.688218,31.3544061 C156.389686,31.028734 155.697643,30.8659004 154.612069,30.8659004 L151.355364,30.8659004 C150.378348,30.8659004 149.672735,31.0830119 149.238506,31.5172414 C148.804276,31.9514709 148.587165,32.7113611 148.587165,33.7969349 L148.587165,65.5498084 L142.969349,65.5498084 L142.969349,26.0622605 L148.587165,26.0622605 L148.587165,28.7490421 C149.18423,26.9578455 150.676872,26.0622605 153.065134,26.0622605 Z M182.049808,16.2921456 L178.874521,16.2921456 C177.843226,16.2921456 177.164753,16.4414097 176.83908,16.7399425 C176.513408,17.0384753 176.350575,17.7305182 176.350575,18.816092 L176.350575,26.0622605 L182.049808,26.0622605 L182.049808,30.8659004 L176.350575,30.8659004 L176.350575,65.5498084 L170.732759,65.5498084 L170.732759,30.8659004 L166.824713,30.8659004 L166.824713,26.0622605 L170.732759,26.0622605 L170.732759,17.51341 C170.732759,13.2253936 172.876735,11.0814176 177.164751,11.0814176 L182.049808,11.0814176 L182.049808,16.2921456 Z M197.600575,26.0622605 L199.310345,26.0622605 L199.310345,30.947318 L196.867816,30.947318 C193.448259,30.947318 191.738506,32.9827383 191.738506,37.0536398 L191.738506,65.5498084 L186.12069,65.5498084 L186.12069,26.0622605 L191.738506,26.0622605 L191.738506,30.6216475 C192.172735,29.3732377 192.891917,28.3012497 193.896073,27.4056513 C194.900229,26.510053 196.13505,26.0622605 197.600575,26.0622605 Z M217.547893,26.0622605 L223.165709,26.0622605 L223.165709,65.5498084 L217.547893,65.5498084 L217.547893,62.8630268 C216.950827,64.6542235 215.458186,65.5498084 213.069923,65.5498084 L209.813218,65.5498084 C205.525202,65.5498084 203.381226,63.4058324 203.381226,59.1178161 L203.381226,26.0622605 L208.999042,26.0622605 L208.999042,58.2222222 C208.999042,59.307796 209.161876,59.9998389 209.487548,60.2983716 C209.81322,60.5969044 210.491693,60.7461686 211.522989,60.7461686 L214.779693,60.7461686 C215.75671,60.7461686 216.462322,60.5290571 216.896552,60.0948276 C217.330781,59.6605981 217.547893,58.9007079 217.547893,57.8151341 L217.547893,26.0622605 Z M230.33046,17.5948276 L230.33046,11 L236.273946,11 L236.273946,17.5948276 L230.33046,17.5948276 Z M236.111111,65.5498084 L230.493295,65.5498084 L230.493295,26.0622605 L236.111111,26.0622605 L236.111111,65.5498084 Z M255,30.8659004 L249.382184,30.8659004 L249.382184,57.8151341 C249.382184,58.8464292 249.545018,59.5249026 249.87069,59.8505747 C250.196362,60.1762468 250.874835,60.3390805 251.90613,60.3390805 L255,60.3390805 L255,65.5498084 L250.19636,65.5498084 C245.908344,65.5498084 243.764368,63.4058324 243.764368,59.1178161 L243.764368,30.8659004 L240.181992,30.8659004 L240.181992,26.0622605 L243.764368,26.0622605 L243.764368,19.6302682 L249.382184,19.6302682 L249.382184,26.0622605 L255,26.0622605 L255,30.8659004 Z" id="Passionfruit" fill="#494949"></path>
            <g id="leaf" transform="translate(235.137210, 11.174150) scale(1, -1) rotate(198.000000) translate(-235.137210, -11.174150) translate(225.137210, 2.674150)">
                <path d="M0,0 C0.872787147,5.48520987 2.89776635,9.61059795 6.07493762,12.3761642 C9.25210888,15.1417305 13.6786189,16.5601474 19.3544677,16.6314149 C17.801575,11.1624448 15.5108817,7.10988473 12.4823878,4.47373458 C9.45389397,1.83758444 5.29309803,0.346339576 0,0 Z" id="outer" fill="#498849"></path>
                <path d="M0,0 C3.90188992,0.270660193 7.36155733,1.31029015 10.3790022,3.11888986 C13.3964471,4.92748957 15.74312,7.85457618 17.419021,11.9001497 C12.7233685,13.9247622 8.91989439,13.761239 6.0085985,11.40958 C3.22655028,9.16232347 1.22368411,5.35913013 0,0 Z" id="inner" fill="#5E9B4D"></path>
            </g>
        </g>
    </g>
</svg>