
<svg width="120px" height="120px" viewBox="0 0 120 120" version="1.1" xmlns="http://www.w3.org/2000/svg" xmlns:xlink="http://www.w3.org/1999/xlink">
    <!-- Generator: Sketch 48.2 (47327) - http://www.bohemiancoding.com/sketch -->
    <desc>Created with Sketch.</desc>
    <defs></defs>
    <g id="Page-1" stroke="none" stroke-width="1" fill="none" fill-rule="evenodd">
        <g id="back" transform="translate(14.000000, 23.000000)" fill="#E33F68">
            <circle id="Oval" cx="26" cy="26" r="26"></circle>
        </g>
        <g id="front" transform="translate(35.000000, 31.000000)">
            <circle id="Oval" fill="#F45980" cx="35" cy="35" r="35"></circle>
            <circle id="Oval-Copy" fill="#F3D7DB" cx="34.6464646" cy="34.6464646" r="31.1111111"></circle>
            <circle id="Oval-Copy" fill="#FFFBC6" cx="35" cy="35" r="27.2222222"></circle>
            <g id="dots" transform="translate(15.555556, 12.727273)">
                <g id="Group" transform="translate(19.090909, 41.010101) rotate(-43.000000) translate(-19.090909, -41.010101) translate(16.262626, 38.181818)">
                    <path d="M5.61856829,0.0316966076 C3.54803197,-0.166199723 1.91564005,0.585038914 0.900606229,1.6580525 C0.233554471,2.36320693 -0.445863202,3.99837313 0.381234815,4.93331934 C1.17001574,5.82495216 2.88423826,6.06055556 4.14605536,4.6622708 C5.40787247,3.26398604 5.78787158,1.74381345 5.61856829,0.0316966076 Z" id="Path-4" stroke="#FBD253" fill="#FFD969"></path>
                    <path d="M4.94949495,0.713875216 C2.8795057,0.60545962 1.78026734,1.82819511 1.7634699,1.84602941 C1.17614014,2.46961374 1.43720878,3.6276031 1.7634699,3.95728049 C2.08973103,4.28695789 3.29885759,4.41395312 3.79729527,3.87746245 C4.57023277,3.0455154 4.70447154,2.42945972 4.94949495,0.713875216 Z" id="Path-5" stroke="#7E4823" fill="#97582D"></path>
                </g>
                <g id="dot" transform="translate(3.535354, 14.848485) rotate(79.000000) translate(-3.535354, -14.848485) translate(0.707071, 12.020202)">
                    <path d="M5.61856829,0.0316966076 C3.54803197,-0.166199723 1.91564005,0.585038914 0.900606229,1.6580525 C0.233554471,2.36320693 -0.445863202,3.99837313 0.381234815,4.93331934 C1.17001574,5.82495216 2.88423826,6.06055556 4.14605536,4.6622708 C5.40787247,3.26398604 5.78787158,1.74381345 5.61856829,0.0316966076 Z" id="Path-4" stroke="#FBD253" fill="#FFD969"></path>
                    <path d="M4.94949495,0.713875216 C2.8795057,0.60545962 1.78026734,1.82819511 1.7634699,1.84602941 C1.17614014,2.46961374 1.43720878,3.6276031 1.7634699,3.95728049 C2.08973103,4.28695789 3.29885759,4.41395312 3.79729527,3.87746245 C4.57023277,3.0455154 4.70447154,2.42945972 4.94949495,0.713875216 Z" id="Path-5" stroke="#7E4823" fill="#97582D"></path>
                </g>
                <g id="dot" transform="translate(3.535354, 32.525253) rotate(14.000000) translate(-3.535354, -32.525253) translate(0.707071, 29.696970)">
                    <path d="M5.61856829,0.0316966076 C3.54803197,-0.166199723 1.91564005,0.585038914 0.900606229,1.6580525 C0.233554471,2.36320693 -0.445863202,3.99837313 0.381234815,4.93331934 C1.17001574,5.82495216 2.88423826,6.06055556 4.14605536,4.6622708 C5.40787247,3.26398604 5.78787158,1.74381345 5.61856829,0.0316966076 Z" id="Path-4" stroke="#FBD253" fill="#FFD969"></path>
                    <path d="M4.94949495,0.713875216 C2.8795057,0.60545962 1.78026734,1.82819511 1.7634699,1.84602941 C1.17614014,2.46961374 1.43720878,3.6276031 1.7634699,3.95728049 C2.08973103,4.28695789 3.29885759,4.41395312 3.79729527,3.87746245 C4.57023277,3.0455154 4.70447154,2.42945972 4.94949495,0.713875216 Z" id="Path-5" stroke="#7E4823" fill="#97582D"></path>
                </g>
                <g id="dot" transform="translate(19.090909, 4.242424) rotate(131.000000) translate(-19.090909, -4.242424) translate(16.262626, 1.414141)">
                    <path d="M5.61856829,0.0316966076 C3.54803197,-0.166199723 1.91564005,0.585038914 0.900606229,1.6580525 C0.233554471,2.36320693 -0.445863202,3.99837313 0.381234815,4.93331934 C1.17001574,5.82495216 2.88423826,6.06055556 4.14605536,4.6622708 C5.40787247,3.26398604 5.78787158,1.74381345 5.61856829,0.0316966076 Z" id="Path-4" stroke="#FBD253" fill="#FFD969"></path>
                    <path d="M4.94949495,0.713875216 C2.8795057,0.60545962 1.78026734,1.82819511 1.7634699,1.84602941 C1.17614014,2.46961374 1.43720878,3.6276031 1.7634699,3.95728049 C2.08973103,4.28695789 3.29885759,4.41395312 3.79729527,3.87746245 C4.57023277,3.0455154 4.70447154,2.42945972 4.94949495,0.713875216 Z" id="Path-5" stroke="#7E4823" fill="#97582D"></path>
                </g>
                <g id="dot" transform="translate(34.646465, 14.848485) rotate(192.000000) translate(-34.646465, -14.848485) translate(31.818182, 12.020202)">
                    <path d="M5.61856829,0.0316966076 C3.54803197,-0.166199723 1.91564005,0.585038914 0.900606229,1.6580525 C0.233554471,2.36320693 -0.445863202,3.99837313 0.381234815,4.93331934 C1.17001574,5.82495216 2.88423826,6.06055556 4.14605536,4.6622708 C5.40787247,3.26398604 5.78787158,1.74381345 5.61856829,0.0316966076 Z" id="Path-4" stroke="#FBD253" fill="#FFD969"></path>
                    <path d="M4.94949495,0.713875216 C2.8795057,0.60545962 1.78026734,1.82819511 1.7634699,1.84602941 C1.17614014,2.46961374 1.43720878,3.6276031 1.7634699,3.95728049 C2.08973103,4.28695789 3.29885759,4.41395312 3.79729527,3.87746245 C4.57023277,3.0455154 4.70447154,2.42945972 4.94949495,0.713875216 Z" id="Path-5" stroke="#7E4823" fill="#97582D"></path>
                </g>
                <g id="dot" transform="translate(35.353535, 31.818182) rotate(-111.000000) translate(-35.353535, -31.818182) translate(32.525253, 28.989899)">
                    <path d="M5.61856829,0.0316966076 C3.54803197,-0.166199723 1.91564005,0.585038914 0.900606229,1.6580525 C0.233554471,2.36320693 -0.445863202,3.99837313 0.381234815,4.93331934 C1.17001574,5.82495216 2.88423826,6.06055556 4.14605536,4.6622708 C5.40787247,3.26398604 5.78787158,1.74381345 5.61856829,0.0316966076 Z" id="Path-4" stroke="#FBD253" fill="#FFD969"></path>
                    <path d="M4.94949495,0.713875216 C2.8795057,0.60545962 1.78026734,1.82819511 1.7634699,1.84602941 C1.17614014,2.46961374 1.43720878,3.6276031 1.7634699,3.95728049 C2.08973103,4.28695789 3.29885759,4.41395312 3.79729527,3.87746245 C4.57023277,3.0455154 4.70447154,2.42945972 4.94949495,0.713875216 Z" id="Path-5" stroke="#7E4823" fill="#97582D"></path>
                </g>
            </g>
        </g>
    </g>
</svg>